<svg width="129" height="123" viewBox="0 0 129 123" fill="none" xmlns="http://www.w3.org/2000/svg">
<path d="M70 68V10L77.5 23H74.5L84.5 41H80L92 62.5H72.5V68H70Z" fill="#002F17"/>
<path d="M26 106V65L31.4545 74.1897H29.2727L36.5455 86.9138H33.2727L42 102.112H27.8182V106H26Z" fill="#002F17"/>
<path d="M0 39V0L5.11364 8.74138H3.06818L9.88636 20.8448H6.81818L15 35.3017H1.70455V39H0Z" fill="#002F17"/>
<path d="M70 68V10L62.5 23H65.5L55.5 41H60L48 62.5H67.5V68H70Z" fill="#002F17"/>
<path d="M26 106V65L20.8864 74.1897H22.9318L16.1136 86.9138H19.1818L11 102.112H24.2955V106H26Z" fill="#002F17"/>
<path d="M101 123V82L106.455 91.1897H104.273L111.545 103.914H108.273L117 119.112H102.818V123H101Z" fill="#002F17"/>
<path d="M101 123V82L95.8864 91.1897H97.9318L91.1136 103.914H94.1818L86 119.112H99.2955V123H101Z" fill="#002F17"/>
<path d="M129 39V0L123.886 8.74138H125.932L119.114 20.8448H122.182L114 35.3017H127.295V39H129Z" fill="#002F17"/>
</svg>
